<svg width="23" height="22" viewBox="0 0 23 22" fill="none" xmlns="http://www.w3.org/2000/svg">
<path fill-rule="evenodd" clip-rule="evenodd" d="M20.5989 0.5C20.2229 0.5 19.8559 0.611 19.5439 0.82L14.4639 4.205C13.1892 5.05509 12.0235 6.05823 10.9929 7.192C13.1098 8.1871 14.8128 9.89011 15.8079 12.007C16.9418 10.9761 17.9449 9.81006 18.7949 8.535L22.1809 3.456C22.3716 3.16961 22.481 2.83687 22.4975 2.49321C22.514 2.14956 22.437 1.80787 22.2746 1.50453C22.1123 1.20119 21.8707 0.947563 21.5756 0.770666C21.2805 0.59377 20.943 0.500226 20.5989 0.5ZM12.2989 14.525C12.9545 14.1609 13.5876 13.7579 14.1949 13.318C13.7913 12.2971 13.1826 11.3699 12.4063 10.5936C11.6301 9.81737 10.7028 9.20861 9.68193 8.805C9.24208 9.41197 8.83903 10.0448 8.47493 10.7L8.19693 11.2C9.05308 11.4463 9.83263 11.9061 10.4625 12.5361C11.0923 13.1661 11.5519 13.9458 11.7979 14.802L12.2999 14.524L12.2989 14.525ZM6.74993 12.5C5.75537 12.5 4.80155 12.8951 4.09828 13.5983C3.39502 14.3016 2.99993 15.2554 2.99993 16.25C2.99999 16.4555 2.95781 16.6589 2.87601 16.8474C2.79421 17.036 2.67453 17.2057 2.52441 17.3461C2.37429 17.4864 2.19692 17.5944 2.00331 17.6634C1.80971 17.7324 1.60399 17.7608 1.39893 17.747C1.26335 17.7379 1.12783 17.7658 1.00687 17.8277C0.885907 17.8896 0.784041 17.9833 0.712157 18.0986C0.640273 18.2139 0.601072 18.3466 0.598743 18.4825C0.596414 18.6183 0.631045 18.7523 0.698934 18.87C1.27582 19.8722 2.16745 20.6558 3.23537 21.0994C4.30329 21.5429 5.48776 21.6214 6.60488 21.3227C7.722 21.0241 8.70927 20.3649 9.4134 19.4477C10.1175 18.5304 10.4991 17.4064 10.4989 16.25C10.4989 15.7575 10.4019 15.2699 10.2135 14.8149C10.025 14.36 9.7488 13.9466 9.40058 13.5983C9.05236 13.2501 8.63897 12.9739 8.184 12.7855C7.72903 12.597 7.24139 12.5 6.74893 12.5H6.74993Z" fill="black"/>
</svg>
