<svg width="24" height="21" viewBox="0 0 24 21" fill="none" xmlns="http://www.w3.org/2000/svg">
<path fill-rule="evenodd" clip-rule="evenodd" d="M0.800049 2.4999C0.800049 2.07556 0.96862 1.66859 1.26868 1.36853C1.56874 1.06847 1.9757 0.899902 2.40005 0.899902H21.6C22.0244 0.899902 22.4314 1.06847 22.7314 1.36853C23.0315 1.66859 23.2001 2.07556 23.2001 2.4999C23.2001 2.92425 23.0315 3.33121 22.7314 3.63127C22.4314 3.93133 22.0244 4.0999 21.6 4.0999H2.40005C1.9757 4.0999 1.56874 3.93133 1.26868 3.63127C0.96862 3.33121 0.800049 2.92425 0.800049 2.4999ZM0.800049 10.4999C0.800049 10.0756 0.96862 9.66859 1.26868 9.36853C1.56874 9.06847 1.9757 8.8999 2.40005 8.8999H21.6C22.0244 8.8999 22.4314 9.06847 22.7314 9.36853C23.0315 9.66859 23.2001 10.0756 23.2001 10.4999C23.2001 10.9242 23.0315 11.3312 22.7314 11.6313C22.4314 11.9313 22.0244 12.0999 21.6 12.0999H2.40005C1.9757 12.0999 1.56874 11.9313 1.26868 11.6313C0.96862 11.3312 0.800049 10.9242 0.800049 10.4999ZM0.800049 18.4999C0.800049 18.0756 0.96862 17.6686 1.26868 17.3685C1.56874 17.0685 1.9757 16.8999 2.40005 16.8999H21.6C22.0244 16.8999 22.4314 17.0685 22.7314 17.3685C23.0315 17.6686 23.2001 18.0756 23.2001 18.4999C23.2001 18.9242 23.0315 19.3312 22.7314 19.6313C22.4314 19.9313 22.0244 20.0999 21.6 20.0999H2.40005C1.9757 20.0999 1.56874 19.9313 1.26868 19.6313C0.96862 19.3312 0.800049 18.9242 0.800049 18.4999Z" fill="#27272A"/>
</svg>
