<svg width="20" height="20" viewBox="0 0 20 20" fill="none" xmlns="http://www.w3.org/2000/svg">
<path d="M19.0999 9.9999C19.0999 12.4134 18.1412 14.728 16.4346 16.4346C14.728 18.1412 12.4134 19.0999 9.9999 19.0999C7.58643 19.0999 5.27181 18.1412 3.56523 16.4346C1.85865 14.728 0.899902 12.4134 0.899902 9.9999C0.899902 7.58643 1.85865 5.27181 3.56523 3.56523C5.27181 1.85865 7.58643 0.899902 9.9999 0.899902C12.4134 0.899902 14.728 1.85865 16.4346 3.56523C18.1412 5.27181 19.0999 7.58643 19.0999 9.9999ZM11.202 16.002C11.5208 15.6832 11.6999 15.2508 11.6999 14.7999C11.6999 14.349 11.5208 13.9166 11.202 13.5978C10.8832 13.279 10.4508 13.0999 9.9999 13.0999C9.54903 13.0999 9.11663 13.279 8.79782 13.5978C8.47901 13.9166 8.2999 14.349 8.2999 14.7999C8.2999 15.2508 8.47901 15.6832 8.79782 16.002C9.11663 16.3208 9.54903 16.4999 9.9999 16.4999C10.4508 16.4999 10.8832 16.3208 11.202 16.002ZM9.9999 3.4999C9.54903 3.4999 9.11663 3.67901 8.79782 3.99782C8.47901 4.31663 8.2999 4.74903 8.2999 5.1999V9.9999C8.2999 10.4508 8.47901 10.8832 8.79782 11.202C9.11663 11.5208 9.54903 11.6999 9.9999 11.6999C10.4508 11.6999 10.8832 11.5208 11.202 11.202C11.5208 10.8832 11.6999 10.4508 11.6999 9.9999V5.1999C11.6999 4.74903 11.5208 4.31663 11.202 3.99782C10.8832 3.67901 10.4508 3.4999 9.9999 3.4999Z" fill="#E02424" stroke="#E02424"/>
</svg>
